<svg width="24" height="24" viewBox="0 0 24 24" fill="none" xmlns="http://www.w3.org/2000/svg">
<path fill-rule="evenodd" clip-rule="evenodd" d="M12 24C18.6274 24 24 18.6274 24 12C24 5.37258 18.6274 0 12 0C5.37258 0 0 5.37258 0 12C0 18.6274 5.37258 24 12 24ZM14.7094 8.61648L19.4301 9.30248H19.4314C19.5544 9.32046 19.6699 9.37246 19.7649 9.45262C19.8599 9.53278 19.9306 9.63791 19.9691 9.75613C20.0075 9.87435 20.0121 10.001 19.9823 10.1216C19.9526 10.2423 19.8897 10.3523 19.8008 10.4392L16.3841 13.7685L17.1901 18.4705C17.2111 18.5931 17.1974 18.7191 17.1505 18.8343C17.1036 18.9495 17.0254 19.0494 16.9248 19.1225C16.8242 19.1956 16.7051 19.239 16.581 19.248C16.457 19.257 16.3329 19.231 16.2228 19.1732L12.0008 16.9538L7.77876 19.1732C7.66866 19.231 7.54456 19.257 7.4205 19.248C7.29643 19.239 7.17735 19.1956 7.07671 19.1225C6.97607 19.0494 6.89789 18.9495 6.85101 18.8343C6.80413 18.7191 6.79042 18.5931 6.81143 18.4705L7.61743 13.7685L4.20076 10.4392C4.11179 10.3522 4.04892 10.2421 4.01925 10.1214C3.98958 10.0006 3.99429 9.87388 4.03285 9.75562C4.07141 9.63737 4.14229 9.53226 4.23746 9.45219C4.33264 9.37211 4.44832 9.32025 4.57143 9.30248L9.29209 8.61648L11.4048 4.34182C11.4661 4.23772 11.5535 4.15143 11.6584 4.09148C11.7632 4.03153 11.882 4 12.0028 4C12.1236 4 12.2423 4.03153 12.3472 4.09148C12.452 4.15143 12.5395 4.23772 12.6008 4.34182L14.7094 8.61648Z" fill="white"/>
</svg>
