<svg width="115" height="29" viewBox="0 0 115 29" fill="none" xmlns="http://www.w3.org/2000/svg">
<g clip-path="url(#clip0)">
<path d="M30.2219 10.0097H41.8661V12.1822H37.2876V24.3949H34.77V12.1822H30.2118V10.0097H30.2219ZM41.3687 13.9791H43.5208V15.9891H43.5614C43.6325 15.7049 43.7645 15.4308 43.9574 15.1668C44.1503 14.9029 44.3837 14.6491 44.6578 14.4359C44.9319 14.2126 45.2365 14.04 45.5715 13.8979C45.9065 13.7659 46.2517 13.6948 46.5968 13.6948C46.8608 13.6948 47.0537 13.705 47.1552 13.7151C47.2567 13.7253 47.3582 13.7456 47.4699 13.7557V15.9688C47.3075 15.9384 47.145 15.9181 46.9725 15.8978C46.7999 15.8775 46.6375 15.8673 46.475 15.8673C46.0893 15.8673 45.7238 15.9485 45.3786 16.1008C45.0335 16.2531 44.7391 16.4866 44.4853 16.781C44.2315 17.0855 44.0284 17.451 43.8762 17.8977C43.7239 18.3444 43.6528 18.852 43.6528 19.4306V24.3847H41.3585V13.9791H41.3687ZM58.0177 24.3949H55.764V22.9431H55.7234C55.4391 23.471 55.0229 23.8873 54.4645 24.202C53.9062 24.5167 53.3377 24.6791 52.759 24.6791C51.3885 24.6791 50.3936 24.3441 49.7845 23.6639C49.1754 22.9837 48.8709 21.9584 48.8709 20.5879V13.9791H51.1652V20.3646C51.1652 21.2782 51.3378 21.928 51.6931 22.3036C52.0382 22.6792 52.5357 22.8721 53.1651 22.8721C53.6524 22.8721 54.0483 22.801 54.3732 22.6487C54.698 22.4965 54.962 22.3036 55.1548 22.0498C55.3579 21.8061 55.5 21.5016 55.5914 21.1564C55.6827 20.8113 55.7234 20.4356 55.7234 20.0296V13.9892H58.0177V24.3949ZM61.9261 21.0549C61.9972 21.7249 62.251 22.1919 62.6875 22.466C63.1342 22.73 63.6621 22.8721 64.2813 22.8721C64.4945 22.8721 64.7382 22.8518 65.0123 22.8213C65.2864 22.7909 65.5503 22.7198 65.7838 22.6284C66.0275 22.5371 66.2203 22.3949 66.3828 22.2122C66.5351 22.0295 66.6061 21.796 66.596 21.5016C66.5858 21.2072 66.4741 20.9635 66.2711 20.7808C66.0681 20.5879 65.8143 20.4458 65.4996 20.324C65.1849 20.2123 64.8295 20.1108 64.4235 20.0296C64.0174 19.9484 63.6113 19.857 63.1951 19.7656C62.7687 19.6743 62.3525 19.5524 61.9566 19.4205C61.5607 19.2885 61.2053 19.1057 60.8906 18.8723C60.5759 18.6489 60.3221 18.3545 60.1394 17.9992C59.9465 17.6439 59.8551 17.2074 59.8551 16.6795C59.8551 16.111 59.9973 15.644 60.2714 15.2582C60.5455 14.8724 60.9008 14.5679 61.317 14.3344C61.7434 14.1009 62.2104 13.9385 62.7281 13.8369C63.2459 13.7456 63.7433 13.6948 64.2103 13.6948C64.7483 13.6948 65.2661 13.7557 65.7534 13.8674C66.2407 13.9791 66.6873 14.1618 67.0833 14.4258C67.4792 14.6795 67.804 15.0146 68.068 15.4206C68.3319 15.8267 68.4944 16.3241 68.5654 16.9028H66.1696C66.0579 16.3546 65.8143 15.979 65.4184 15.7963C65.0224 15.6034 64.5656 15.512 64.058 15.512C63.8956 15.512 63.7027 15.5222 63.4794 15.5526C63.256 15.5831 63.053 15.6338 62.8499 15.7049C62.6571 15.7759 62.4946 15.8876 62.3525 16.0297C62.2205 16.1719 62.1495 16.3546 62.1495 16.5881C62.1495 16.8723 62.251 17.0957 62.4439 17.2683C62.6367 17.4408 62.8905 17.583 63.2052 17.7048C63.52 17.8165 63.8753 17.918 64.2813 17.9992C64.6874 18.0804 65.1036 18.1718 65.53 18.2631C65.9462 18.3545 66.3523 18.4763 66.7584 18.6083C67.1645 18.7403 67.5198 18.923 67.8345 19.1565C68.1492 19.39 68.403 19.6743 68.5959 20.0194C68.7888 20.3646 68.8903 20.8011 68.8903 21.3087C68.8903 21.928 68.7482 22.4457 68.4639 22.8822C68.1797 23.3086 67.8142 23.6639 67.3675 23.9279C66.9208 24.1918 66.4132 24.3949 65.865 24.5167C65.3168 24.6385 64.7686 24.6994 64.2306 24.6994C63.5707 24.6994 62.9616 24.6283 62.4033 24.4761C61.8449 24.3238 61.3576 24.1005 60.9515 23.806C60.5455 23.5015 60.2206 23.1259 59.9871 22.6792C59.7536 22.2325 59.6318 21.6945 59.6115 21.0752H61.9261V21.0549ZM69.4994 13.9791H71.2354V10.8523H73.5297V13.9791H75.6006V15.6947H73.5297V21.2579C73.5297 21.5016 73.5398 21.7046 73.5601 21.8874C73.5804 22.0599 73.6312 22.2122 73.7023 22.334C73.7733 22.4559 73.885 22.5472 74.0373 22.6081C74.1895 22.669 74.3824 22.6995 74.6464 22.6995C74.8088 22.6995 74.9712 22.6995 75.1337 22.6893C75.2961 22.6792 75.4585 22.6589 75.6209 22.6183V24.3949C75.3672 24.4253 75.1134 24.4456 74.8799 24.4761C74.6362 24.5065 74.3926 24.5167 74.1388 24.5167C73.5297 24.5167 73.0424 24.4558 72.6769 24.3441C72.3115 24.2324 72.017 24.0598 71.814 23.8365C71.6008 23.6132 71.4688 23.3391 71.3876 23.0041C71.3166 22.669 71.2658 22.2833 71.2557 21.8569V15.715H69.5197V13.9791H69.4994ZM77.2249 13.9791H79.3974V15.3902H79.438C79.7629 14.7811 80.2096 14.3547 80.7882 14.0907C81.3669 13.8268 81.9861 13.6948 82.6663 13.6948C83.4886 13.6948 84.1993 13.8369 84.8084 14.1313C85.4175 14.4156 85.9251 14.8115 86.3311 15.3191C86.7372 15.8267 87.0316 16.4155 87.2346 17.0855C87.4377 17.7556 87.5392 18.4763 87.5392 19.2377C87.5392 19.9382 87.4478 20.6184 87.2651 21.2681C87.0824 21.928 86.8083 22.5066 86.4428 23.0142C86.0773 23.5218 85.6104 23.9177 85.0419 24.2223C84.4733 24.5268 83.8135 24.6791 83.0419 24.6791C82.7069 24.6791 82.3719 24.6487 82.0369 24.5877C81.7019 24.5268 81.377 24.4253 81.0725 24.2933C80.7679 24.1614 80.4735 23.9888 80.2197 23.7756C79.9558 23.5624 79.7426 23.3188 79.5599 23.0447H79.5193V28.2424H77.2249V13.9791ZM85.2449 19.1971C85.2449 18.7301 85.184 18.2733 85.0622 17.8266C84.9403 17.3799 84.7576 16.9942 84.514 16.649C84.2703 16.3038 83.9658 16.0297 83.6104 15.8267C83.245 15.6237 82.8287 15.512 82.3618 15.512C81.3973 15.512 80.6664 15.847 80.1791 16.517C79.6918 17.1871 79.4482 18.0804 79.4482 19.1971C79.4482 19.725 79.5091 20.2123 79.6411 20.659C79.773 21.1057 79.9558 21.4914 80.2197 21.8163C80.4735 22.1411 80.7781 22.3949 81.1334 22.5777C81.4887 22.7706 81.9049 22.8619 82.3719 22.8619C82.8998 22.8619 83.3363 22.7503 83.7018 22.5371C84.0673 22.3239 84.3617 22.0396 84.5952 21.7046C84.8287 21.3595 85.0012 20.9737 85.1028 20.5372C85.1941 20.1006 85.2449 19.6539 85.2449 19.1971ZM89.2955 10.0097H91.5898V12.1822H89.2955V10.0097ZM89.2955 13.9791H91.5898V24.3949H89.2955V13.9791ZM93.6405 10.0097H95.9348V24.3949H93.6405V10.0097ZM102.97 24.6791C102.138 24.6791 101.396 24.537 100.747 24.2629C100.097 23.9888 99.5488 23.603 99.092 23.1259C98.6453 22.6386 98.3002 22.0599 98.0667 21.3899C97.8332 20.7199 97.7113 19.9788 97.7113 19.1768C97.7113 18.385 97.8332 17.654 98.0667 16.984C98.3002 16.314 98.6453 15.7353 99.092 15.2481C99.5387 14.7608 100.097 14.3851 100.747 14.111C101.396 13.8369 102.138 13.6948 102.97 13.6948C103.802 13.6948 104.544 13.8369 105.193 14.111C105.843 14.3851 106.391 14.7709 106.848 15.2481C107.295 15.7353 107.64 16.314 107.873 16.984C108.107 17.654 108.229 18.385 108.229 19.1768C108.229 19.9788 108.107 20.7199 107.873 21.3899C107.64 22.0599 107.295 22.6386 106.848 23.1259C106.401 23.6132 105.843 23.9888 105.193 24.2629C104.544 24.537 103.802 24.6791 102.97 24.6791ZM102.97 22.8619C103.478 22.8619 103.924 22.7503 104.3 22.5371C104.676 22.3239 104.98 22.0396 105.224 21.6945C105.467 21.3493 105.64 20.9534 105.762 20.5169C105.873 20.0803 105.934 19.6336 105.934 19.1768C105.934 18.7301 105.873 18.2936 105.762 17.8469C105.65 17.4002 105.467 17.0145 105.224 16.6693C104.98 16.3241 104.676 16.05 104.3 15.8369C103.924 15.6237 103.478 15.512 102.97 15.512C102.462 15.512 102.016 15.6237 101.64 15.8369C101.264 16.05 100.96 16.3343 100.716 16.6693C100.473 17.0145 100.3 17.4002 100.178 17.8469C100.067 18.2936 100.006 18.7301 100.006 19.1768C100.006 19.6336 100.067 20.0803 100.178 20.5169C100.29 20.9534 100.473 21.3493 100.716 21.6945C100.96 22.0396 101.264 22.3239 101.64 22.5371C102.016 22.7604 102.462 22.8619 102.97 22.8619ZM108.899 13.9791H110.635V10.8523H112.929V13.9791H115V15.6947H112.929V21.2579C112.929 21.5016 112.939 21.7046 112.959 21.8874C112.98 22.0599 113.03 22.2122 113.102 22.334C113.173 22.4559 113.284 22.5472 113.437 22.6081C113.589 22.669 113.782 22.6995 114.046 22.6995C114.208 22.6995 114.371 22.6995 114.533 22.6893C114.695 22.6792 114.858 22.6589 115.02 22.6183V24.3949C114.766 24.4253 114.513 24.4456 114.279 24.4761C114.035 24.5065 113.792 24.5167 113.538 24.5167C112.929 24.5167 112.442 24.4558 112.076 24.3441C111.711 24.2324 111.416 24.0598 111.213 23.8365C111 23.6132 110.868 23.3391 110.787 23.0041C110.716 22.669 110.665 22.2833 110.655 21.8569V15.715H108.919V13.9791H108.899Z" fill="white"/>
<path d="M27.5419 10.0097H17.0246L13.776 0L10.5173 10.0097L0 9.99956L8.51739 16.1922L5.25865 26.1917L13.776 20.0093L22.2833 26.1917L19.0347 16.1922L27.5419 10.0097Z" fill="#00B67A"/>
<path d="M19.7657 18.4561L19.0347 16.1922L13.7761 20.0093L19.7657 18.4561Z" fill="#005128"/>
</g>
<defs>
<clipPath id="clip0">
<rect width="115" height="28.2424" fill="white"/>
</clipPath>
</defs>
</svg>
